<?xml version="1.0" encoding="UTF-8"?>
<svg xmlns="http://www.w3.org/2000/svg" xmlns:xlink="http://www.w3.org/1999/xlink" version="1.1" id="Capa_1" x="0px" y="0px" viewBox="0 0 512 512" style="enable-background:new 0 0 512 512;" xml:space="preserve" width="512" height="512">
<g>
	<path style="fill:none;stroke:#000000;stroke-width:15;stroke-linecap:round;stroke-linejoin:round;stroke-miterlimit:10;" d="&#10;&#9;&#9;M141.159,504.5l0-72.986c0-7.962,6.462-14.417,14.424-14.417c12.083,0,19.891,0.024,25.391,0.015&#10;&#9;&#9;c11.681-0.018,22.92-4.491,31.385-12.541c18.387-17.484,33.066-40.131,42.201-66.574c0.267-0.772,0.532-1.546,0.796-2.321&#10;&#9;&#9;c27.967-82.226,14.64-176-34.822-245.188c-0.447-0.625-0.894-1.247-1.342-1.868c-0.065-0.091-0.131-0.181-0.197-0.272&#10;&#9;&#9;c-12.203-16.798-34.447-23.112-53.676-15.282c-0.963,0.392-1.922,0.798-2.878,1.218l-14.539,6.389&#10;&#9;&#9;c-6.829,3.001-14.5-1.964-14.559-9.423L132.918,7.5"/>
	<path style="fill:none;stroke:#000000;stroke-width:15;stroke-linecap:round;stroke-linejoin:round;stroke-miterlimit:10;" d="&#10;&#9;&#9;M102.114,183.343c12.238,28.13,28.855,50.972,50.882,67.279c14.836,10.983,19.809,30.923,11.64,47.476l0,0&#10;&#9;&#9;c-9.805,19.867-34.458,27.166-53.498,15.839l-6.388-3.8c-18.306-10.891-41.709-7.691-56.42,7.714l0,0&#10;&#9;&#9;c-17.539,18.366-16.741,47.509,1.775,64.889l12.08,11.338c10.992,10.317,17.228,24.721,17.228,39.797V504.5"/>
	<path style="fill:none;stroke:#000000;stroke-width:15;stroke-linecap:round;stroke-linejoin:round;stroke-miterlimit:10;" d="&#10;&#9;&#9;M79.413,7.5v62.725c0,29.722,4.281,59.332,13.237,87.673"/>
	<path style="fill:none;stroke:#000000;stroke-width:15;stroke-linecap:round;stroke-linejoin:round;stroke-miterlimit:10;" d="&#10;&#9;&#9;M380.425,291.739c11.23-44.494,7.919-91.398-9.231-133.744"/>
	<path style="fill:none;stroke:#000000;stroke-width:15;stroke-linecap:round;stroke-linejoin:round;stroke-miterlimit:10;" d="&#10;&#9;&#9;M358.236,131.41c-3.735-6.489-7.825-12.821-12.276-18.963c-0.412-0.568-0.825-1.135-1.238-1.699&#10;&#9;&#9;c-22.112-30.175-56.996-46.5-92.698-46.129c-3.711,0.039-5.475,4.559-2.798,7.129c5.243,5.035,10.15,10.662,14.636,16.872&#10;&#9;&#9;c0.448,0.62,0.896,1.243,1.342,1.868c49.462,69.188,62.788,162.962,34.822,245.188c-0.264,0.775-0.529,1.549-0.796,2.321&#10;&#9;&#9;c-9.656,27.95-25.504,51.658-45.379,69.512c-3.091,2.776-0.569,7.865,3.518,7.121c42.707-7.769,80.394-33.607,102.53-71.34"/>
	<g>
		
			<line style="fill:none;stroke:#000000;stroke-width:15;stroke-linecap:round;stroke-linejoin:round;stroke-miterlimit:10;" x1="217.545" y1="100.595" x2="235.841" y2="94.87"/>
		
			<line style="fill:none;stroke:#000000;stroke-width:15;stroke-linecap:round;stroke-linejoin:round;stroke-miterlimit:10;" x1="235.841" y1="133.952" x2="254.137" y2="128.228"/>
		
			<line style="fill:none;stroke:#000000;stroke-width:15;stroke-linecap:round;stroke-linejoin:round;stroke-miterlimit:10;" x1="250.126" y1="170.24" x2="268.422" y2="164.515"/>
		
			<line style="fill:none;stroke:#000000;stroke-width:15;stroke-linecap:round;stroke-linejoin:round;stroke-miterlimit:10;" x1="258.005" y1="209.371" x2="276.301" y2="203.646"/>
		
			<line style="fill:none;stroke:#000000;stroke-width:15;stroke-linecap:round;stroke-linejoin:round;stroke-miterlimit:10;" x1="262.073" y1="245.813" x2="281.085" y2="243.352"/>
		
			<line style="fill:none;stroke:#000000;stroke-width:15;stroke-linecap:round;stroke-linejoin:round;stroke-miterlimit:10;" x1="258.916" y1="281.017" x2="277.928" y2="278.557"/>
		
			<line style="fill:none;stroke:#000000;stroke-width:15;stroke-linecap:round;stroke-linejoin:round;stroke-miterlimit:10;" x1="252.567" y1="317.902" x2="271.579" y2="315.442"/>
		
			<line style="fill:none;stroke:#000000;stroke-width:15;stroke-linecap:round;stroke-linejoin:round;stroke-miterlimit:10;" x1="240.713" y1="348.314" x2="259.881" y2="347.964"/>
		
			<line style="fill:none;stroke:#000000;stroke-width:15;stroke-linecap:round;stroke-linejoin:round;stroke-miterlimit:10;" x1="226.225" y1="378.313" x2="245.295" y2="380.272"/>
	</g>
	<g>
		
			<line style="fill:none;stroke:#000000;stroke-width:15;stroke-linecap:round;stroke-linejoin:round;stroke-miterlimit:10;" x1="184.855" y1="180.62" x2="144.269" y2="133.193"/>
		
			<polyline style="fill:none;stroke:#000000;stroke-width:15;stroke-linecap:round;stroke-linejoin:round;stroke-miterlimit:10;" points="&#10;&#9;&#9;&#9;165.38,185.549 192.828,189.936 192.734,162.14 &#9;&#9;"/>
	</g>
	<g>
		
			<line style="fill:none;stroke:#000000;stroke-width:15;stroke-linecap:round;stroke-linejoin:round;stroke-miterlimit:10;" x1="185.238" y1="347.811" x2="212.669" y2="291.739"/>
		
			<polyline style="fill:none;stroke:#000000;stroke-width:15;stroke-linecap:round;stroke-linejoin:round;stroke-miterlimit:10;" points="&#10;&#9;&#9;&#9;172.987,331.89 179.85,358.825 205.327,347.711 &#9;&#9;"/>
	</g>
	<g>
		<path style="fill:none;stroke:#000000;stroke-width:15;stroke-linecap:round;stroke-linejoin:round;stroke-miterlimit:10;" d="&#10;&#9;&#9;&#9;M380.317,354.241l8.179,17.366l22.542-10.616L360.29,253.236l0,0c-16.582,20.246-20.043,48.225-8.892,71.901l6.74,14.311&#10;&#9;&#9;&#9;c1.109,2.354,3.07,4.199,5.487,5.163l11.207,4.468C377.248,350.042,379.209,351.887,380.317,354.241z"/>
		
			<line style="fill:none;stroke:#000000;stroke-width:15;stroke-linecap:round;stroke-linejoin:round;stroke-miterlimit:10;" x1="448.081" y1="468.962" x2="446.062" y2="464.485"/>
		<path style="fill:none;stroke:#000000;stroke-width:15;stroke-linecap:round;stroke-linejoin:round;stroke-miterlimit:10;" d="&#10;&#9;&#9;&#9;M401.709,429.696l-19.148-49.663c-1.104-2.864,0.221-6.091,3.019-7.353l31.724-14.305c2.798-1.262,6.094-0.118,7.509,2.605&#10;&#9;&#9;&#9;l48.23,92.815c7.686,14.791,1.367,33.002-13.828,39.854l0,0c-15.196,6.852-33.027-0.469-39.024-16.022l-7.91-20.516"/>
	</g>
</g>















</svg>
