<?xml version="1.0" encoding="UTF-8"?>
<svg xmlns="http://www.w3.org/2000/svg" xmlns:xlink="http://www.w3.org/1999/xlink" version="1.1" id="Capa_1" x="0px" y="0px" viewBox="0 0 512.006 512.006" style="enable-background:new 0 0 512.006 512.006;" xml:space="preserve" width="512" height="512">
<g>
	<path style="fill:none;stroke:#000000;stroke-width:15;stroke-linecap:round;stroke-linejoin:round;stroke-miterlimit:10;" d="&#10;&#9;&#9;M306.294,308.143c-16.331-1.73-29.711-11.884-39.534-25.721c-4.856-6.84-12.82-10.803-21.205-10.565&#10;&#9;&#9;c-20.256,0.575-37.687-0.194-50.923-13.231"/>
	<path style="fill:none;stroke:#000000;stroke-width:15;stroke-linecap:round;stroke-linejoin:round;stroke-miterlimit:10;" d="&#10;&#9;&#9;M186.398,269.955c4.548,5.621,8.594,13.078,11.414,21.659c7.037,21.411,3.779,41.715-7.278,45.349&#10;&#9;&#9;c-11.057,3.634-25.726-10.777-32.763-32.188c-2.53-7.697-3.729-15.251-3.714-21.939"/>
	<g>
		<path style="fill:none;stroke:#000000;stroke-width:15;stroke-linecap:round;stroke-linejoin:round;stroke-miterlimit:10;" d="&#10;&#9;&#9;&#9;M63.994,347.07l-2.214,19.068l-24.75-2.874l13.739-118.313l0,0c22.173,13.902,34.374,39.316,31.355,65.312l-1.825,15.713&#10;&#9;&#9;&#9;c-0.3,2.585-1.57,4.959-3.554,6.643l-9.197,7.808C65.564,342.111,64.294,344.486,63.994,347.07z"/>
		
			<line style="fill:none;stroke:#000000;stroke-width:15;stroke-linecap:round;stroke-linejoin:round;stroke-miterlimit:10;" x1="36.283" y1="477.402" x2="36.936" y2="472.534"/>
		<path style="fill:none;stroke:#000000;stroke-width:15;stroke-linecap:round;stroke-linejoin:round;stroke-miterlimit:10;" d="&#10;&#9;&#9;&#9;M17.674,419.559l9.996-52.28c0.576-3.014,3.407-5.054,6.449-4.646l34.491,4.625c3.042,0.408,5.235,3.121,4.997,6.181&#10;&#9;&#9;&#9;l-8.118,104.283c-1.294,16.619-16.284,28.738-32.805,26.522h0c-16.521-2.215-27.788-17.856-24.658-34.228l4.129-21.597"/>
	</g>
	<g>
		
			<line style="fill:none;stroke:#000000;stroke-width:15;stroke-linecap:round;stroke-linejoin:round;stroke-miterlimit:10;" x1="228.372" y1="331.408" x2="239.374" y2="336.042"/>
		
			<line style="fill:none;stroke:#000000;stroke-width:15;stroke-linecap:round;stroke-linejoin:round;stroke-miterlimit:10;" x1="226.898" y1="302.056" x2="236.629" y2="297.407"/>
		
			<line style="fill:none;stroke:#000000;stroke-width:15;stroke-linecap:round;stroke-linejoin:round;stroke-miterlimit:10;" x1="154.057" y1="356.569" x2="148.13" y2="364.742"/>
		
			<line style="fill:none;stroke:#000000;stroke-width:15;stroke-linecap:round;stroke-linejoin:round;stroke-miterlimit:10;" x1="134.978" y1="316.009" x2="123.752" y2="315.944"/>
	</g>
	<path style="fill:none;stroke:#000000;stroke-width:15;stroke-linecap:round;stroke-linejoin:round;stroke-miterlimit:10;" d="&#10;&#9;&#9;M203.235,232.624c0,0,43.072,12.327,86.144,4.705"/>
	<path style="fill:none;stroke:#000000;stroke-width:15;stroke-linecap:round;stroke-linejoin:round;stroke-miterlimit:10;" d="&#10;&#9;&#9;M284.482,225.881c0,0,5.725,21.13,18.936,22.895"/>
	<path style="fill:none;stroke:#000000;stroke-width:15;stroke-linecap:round;stroke-linejoin:round;stroke-miterlimit:10;" d="&#10;&#9;&#9;M251.235,190.349c0,0,48.227,10.128,73.182-10.128"/>
	<path style="fill:none;stroke:#000000;stroke-width:15;stroke-linecap:round;stroke-linejoin:round;stroke-miterlimit:10;" d="&#10;&#9;&#9;M306.294,189.329c0,0,53.271,18.635,44.024,76.763"/>
	<path style="fill:none;stroke:#000000;stroke-width:15;stroke-linecap:round;stroke-linejoin:round;stroke-miterlimit:10;" d="&#10;&#9;&#9;M239.455,103.962c0,0-2.312,37.947,11.78,51.158"/>
	<path style="fill:none;stroke:#000000;stroke-width:15;stroke-linecap:round;stroke-linejoin:round;stroke-miterlimit:10;" d="&#10;&#9;&#9;M246.307,162.386c0,0,5.478-10.239,22.653-13.541"/>
	<path style="fill:none;stroke:#000000;stroke-width:15;stroke-linecap:round;stroke-linejoin:round;stroke-miterlimit:10;" d="&#10;&#9;&#9;M351.396,118.68c0,0,19.949,27.559,5.747,58.256"/>
	<path style="fill:none;stroke:#000000;stroke-width:15;stroke-linecap:round;stroke-linejoin:round;stroke-miterlimit:10;" d="&#10;&#9;&#9;M391.491,162.386c0,0-5.317-19.156-29.246-13.541"/>
	<path style="fill:none;stroke:#000000;stroke-width:15;stroke-linecap:round;stroke-linejoin:round;stroke-miterlimit:10;" d="&#10;&#9;&#9;M376.869,208.294c0,0,34.439,4.917,44.348,47.706"/>
	<path style="fill:none;stroke:#000000;stroke-width:15;stroke-linecap:round;stroke-linejoin:round;stroke-miterlimit:10;" d="&#10;&#9;&#9;M408.996,192.881c0,0-15.614,12.488-9.954,24.684"/>
	<path style="fill:none;stroke:#000000;stroke-width:15;stroke-linecap:round;stroke-linejoin:round;stroke-miterlimit:10;" d="&#10;&#9;&#9;M163.291,8.183c-2.042-0.432-4.142-0.683-6.299-0.683c-18.394,0-33.305,16.413-33.305,36.66c0,7.156,1.87,13.828,5.09,19.471&#10;&#9;&#9;c-3.221,5.643-5.09,12.315-5.09,19.471c0,7.156,1.87,13.828,5.09,19.471c-3.221,5.643-5.09,12.315-5.09,19.471&#10;&#9;&#9;c0,9.36,3.191,17.896,8.435,24.374c-5.244,6.479-8.435,15.014-8.435,24.374c0,8.536,2.658,16.384,7.102,22.615&#10;&#9;&#9;c-10.429,8.719-17.167,22.509-17.167,38.035c0,26.366,19.418,47.739,43.37,47.739s43.37-21.374,43.37-47.739&#10;&#9;&#9;c0-15.527-6.738-29.317-17.167-38.035c4.445-6.231,7.102-14.079,7.102-22.615c0-9.36-3.191-17.896-8.435-24.374&#10;&#9;&#9;c5.244-6.479,8.435-15.014,8.435-24.374c0-3.123-0.356-6.153-1.025-9.047c-1.578-6.823-1.634-13.887-0.034-20.704&#10;&#9;&#9;c0.016-0.067,0.031-0.134,0.047-0.201c1.133-4.943,5.068-8.807,10.028-9.863c0.068-0.014,0.135-0.029,0.202-0.044&#10;&#9;&#9;c5.687-1.245,11.568,1.246,14.451,6.304c1.708,2.995,3.929,5.728,6.66,8.07c10.752,9.221,26.269,9.7,38.857,2.419&#10;&#9;&#9;c3.194,8.139,9.298,14.812,17.64,18.154c14.173,5.678,30.317-0.042,39.704-12.896c9.386,12.855,25.53,18.574,39.704,12.896&#10;&#9;&#9;c8.341-3.342,14.446-10.015,17.64-18.154c12.588,7.281,28.105,6.802,38.857-2.419c3.313-2.841,5.875-6.255,7.68-10.017&#10;&#9;&#9;c1.997-4.16,6.634-6.244,11.065-4.958c0.049,0.014,0.098,0.028,0.147,0.042c3.378,0.964,5.891,3.871,6.394,7.348&#10;&#9;&#9;c0.319,2.207,0.819,4.36,1.49,6.439c1.551,4.805,1.403,9.948-0.105,14.767c-1.17,3.737-1.806,7.746-1.806,11.921&#10;&#9;&#9;c0,7.156,1.87,13.828,5.09,19.471c-3.221,5.643-5.09,12.315-5.09,19.471c0,9.36,3.191,17.896,8.436,24.374&#10;&#9;&#9;c-5.244,6.479-8.436,15.014-8.436,24.374c0,8.027,2.35,15.446,6.325,21.484c-3.975,6.038-6.325,13.457-6.325,21.484&#10;&#9;&#9;c0,2.125,0.173,4.205,0.489,6.231c-7.42-0.649-14.881,1.136-21.154,5.639c-1.685,1.209-3.204,2.57-4.57,4.042&#10;&#9;&#9;c-5.749-3.592-12.484-5.386-19.507-4.722c-11.048,1.045-20.264,7.923-25.425,17.638c-6.891-8.575-17.233-13.603-28.281-12.558&#10;&#9;&#9;c-18.312,1.732-31.612,19.477-29.705,39.634c0.503,5.322,2.019,10.277,4.312,14.658c2.409,4.604,2.507,10.01,0.291,14.709&#10;&#9;&#9;c-2.86,6.063-4.716,13.068-5.211,20.601c-1.052,16.004-2.296,30.453,6.628,38.96c5.43,5.177,8.761,12.169,8.761,19.672l0,0&#10;&#9;&#9;c0,5.724,4.64,10.364,10.364,10.364h13.953c6.281,0,11.372-5.092,11.372-11.372v0c0-7.622,3.057-14.823,8.143-20.5&#10;&#9;&#9;c6.926-7.73,6.369-19.413,7.246-32.755c0.753-11.457-1.771-22.112-6.526-30.365c-0.756-1.313-0.691-2.939,0.187-4.174l0.042-0.059&#10;&#9;&#9;c1.339-1.883,4.021-2.103,5.691-0.507c6.697,6.4,15.622,9.941,25.062,9.048c9.107-0.862,16.972-5.686,22.346-12.795&#10;&#9;&#9;c11.719,7.494,26.504,7.996,37.585,0.041c10.855-7.793,15.158-21.55,12.177-34.799c3.666-0.115,7.179-0.891,10.456-2.208"/>
	<path style="fill:none;stroke:#000000;stroke-width:15;stroke-linecap:round;stroke-linejoin:round;stroke-miterlimit:10;" d="&#10;&#9;&#9;M502.399,265.585c1.356-3.992,2.104-8.311,2.104-12.825c0-8.027-2.35-15.446-6.326-21.484c3.975-6.038,6.326-13.457,6.326-21.484&#10;&#9;&#9;c0-9.36-3.191-17.896-8.436-24.374c5.244-6.479,8.436-15.014,8.436-24.374c0-7.156-1.87-13.828-5.091-19.471&#10;&#9;&#9;c3.221-5.643,5.091-12.315,5.091-19.471c0-7.156-1.87-13.828-5.091-19.471c3.221-5.643,5.091-12.315,5.091-19.471&#10;&#9;&#9;c0-14.733-7.896-27.436-19.285-33.261c-6.869-3.514-12.71-8.826-16.17-15.721c-1.426-2.841-3.228-5.573-5.411-8.118&#10;&#9;&#9;c-13.18-15.369-35.184-18.122-49.147-6.148c-5.683,4.874-9.158,11.437-10.392,18.542c-12.578-7.248-28.065-6.757-38.802,2.45&#10;&#9;&#9;c-3.476,2.981-6.125,6.594-7.941,10.576c-8.556-4.936-18.752-6.15-28.092-2.408c-4.998,2.002-9.188,5.205-12.438,9.196&#10;&#9;&#9;c-3.249-3.991-7.439-7.194-12.437-9.196c-9.34-3.742-19.536-2.528-28.092,2.408c-1.816-3.982-4.465-7.595-7.941-10.576&#10;&#9;&#9;c-10.737-9.207-26.224-9.698-38.802-2.45c-1.234-7.105-4.708-13.668-10.392-18.542c-6.908-5.924-15.782-8.241-24.583-7.21&#10;&#9;&#9;c-0.762,0.089-1.525,0.155-2.288,0.21"/>
</g>















</svg>
