<svg id="Layer_1" viewBox="0 0 512 512" xmlns="http://www.w3.org/2000/svg" xmlns:xlink="http://www.w3.org/1999/xlink" data-name="Layer 1" width="300" height="300" version="1.1" xmlns:svgjs="http://svgjs.dev/svgjs"><g width="100%" height="100%" transform="matrix(1,0,0,1,0,0)"><linearGradient id="linear-gradient" gradientUnits="userSpaceOnUse" x1="88.548" x2="365.567" y1="503.262" y2="23.451"><stop stop-opacity="1" stop-color="#000000" offset="0.05"/><stop stop-opacity="1" stop-color="#000000" offset="0.13"/><stop stop-opacity="1" stop-color="#000000" offset="0.42"/><stop stop-opacity="1" stop-color="#000000" offset="0.67"/><stop stop-opacity="1" stop-color="#000000" offset="0.87"/><stop stop-opacity="1" stop-color="#000000" offset="1"/></linearGradient><path d="m497.004 152.86c-20.381-59.669-67.472-104.566-119.97-114.38-44.832-8.382-88.732 9.288-123.945 49.794-36.704-1.889-59.102-27.617-68.422-78.534-.348-1.903-1.468-3.576-3.094-4.624-1.626-1.047-3.612-1.375-5.489-.907l-53.201 13.3c-3.248.812-5.467 3.811-5.292 7.155 1.1 21.137 5.768 41.617 13.625 60.183-9.026-2.734-18.592-4.21-28.498-4.21-54.298 0-98.472 44.175-98.472 98.473s44.174 98.473 98.472 98.473 98.473-44.175 98.473-98.473c0-7.009-.742-13.848-2.141-20.447 13.583 6.68 28.234 10.983 43.792 12.824 2.411 18.138 12.091 34.541 26.839 45.419-3.455 15.873-2.236 32.316 3.477 47.457-17.993 5.882-31.278 21.119-34.642 39.773-24.961-4.688-50.435.672-75.905 15.989-32.929-23.303-69.587-28.592-101.231-14.428-29.955 13.408-50.951 42.464-53.489 74.023-2.518 31.3 12.696 59.446 42.838 79.254 2.31 1.518 4.639 3.012 6.956 4.498 17.979 11.53 33.505 21.488 33.95 37.72.104 3.79 3.206 6.809 6.997 6.809h48.748c3.866 0 7-3.134 7-7 0-48.19-36.656-71.264-60.913-86.533-2.907-1.83-5.652-3.558-8.187-5.228-10.777-7.099-15.473-14.694-12.254-19.822 3.082-4.91 13.338-8.198 23.042-2.399 1.291.771 2.609 1.599 3.97 2.452 12.264 7.688 28.889 18.113 57.241 10.85 37.157 26.564 81.321 40.65 126.619 40.648 7.521 0 15.083-.389 22.64-1.173 54.206-5.626 104.021-31.136 140.268-71.83 29.952-33.625 49.137-70.735 57.021-110.297 6.985-35.051 4.627-71.293-6.821-104.808zm-394.287 110.722c-46.578 0-84.472-37.894-84.472-84.473s37.894-84.473 84.472-84.473 84.473 37.894 84.473 84.473-37.894 84.473-84.473 84.473zm333.634 95.071c-70.583 79.239-188.176 91.444-273.527 28.392-1.766-1.304-4.042-1.703-6.147-1.081-24.363 7.219-37.561-1.056-49.204-8.356-1.448-.908-2.852-1.787-4.226-2.608-16.401-9.799-35-4.305-42.08 6.975-6.042 9.627-4.904 24.916 16.411 38.957 2.656 1.749 5.461 3.515 8.43 5.384 22.782 14.34 50.804 31.978 54.058 67.685h-35.204c-3.931-19.426-22.044-31.041-39.62-42.313-2.273-1.458-4.559-2.923-6.825-4.412-25.672-16.871-38.661-40.464-36.572-66.433 2.134-26.537 19.897-51.018 45.254-62.368 16.509-7.39 50.277-15.18 90.962 15.671 2.343 1.777 5.546 1.9 8.017.309 26.451-17.02 51.558-21.911 76.75-14.96 2.089.578 4.325.154 6.059-1.145s2.768-3.327 2.802-5.492c.292-18.582 13.853-34.013 32.243-36.69 2.224-.324 4.157-1.696 5.197-3.688 1.04-1.993 1.059-4.364.053-6.373-7.83-15.632-9.533-33.511-4.795-50.341.842-2.992-.389-6.18-3.022-7.83-14.964-9.371-24.335-25.497-25.067-43.138-.147-3.542-2.918-6.415-6.453-6.689-21.022-1.629-40.268-8.103-57.251-19.222-8.679-19.315-23.407-35.343-41.758-45.664-10.436-18.849-16.916-40.67-18.87-63.552l40.392-10.098c11.814 54.364 39.972 82.214 83.774 82.805 2.143.023 4.103-.888 5.454-2.496 32.189-38.312 72.274-55.231 112.877-47.64 47.617 8.902 90.518 50.174 109.294 105.145 23.229 68.008 5.951 141.368-47.405 201.268zm17.189-164.829c-2.482-.959-5.293-.429-7.254 1.369-8.709 7.982-42.087 33.485-105.918 26.547-1.717-.186-3.447.27-4.851 1.281-20.541 14.811-29.934 37.075-27.979 66.254-24.695 2.487-30.88 18.085-35.936 30.839-3.092 7.802-5.762 14.54-12.15 18.253-5.866 3.409-12.227 2.684-21.03 1.679-15.087-1.722-35.75-4.082-66.47 13.78-2.063 1.2-3.373 3.368-3.475 5.752s1.018 4.656 2.971 6.028c28.538 20.041 62.038 31.439 96.876 32.963 2.677.117 5.349.175 8.019.175 32.074 0 63.505-8.424 91.365-24.554 30.179-17.472 54.602-43.078 70.627-74.049 16.024-30.971 22.82-65.698 19.65-100.426-.241-2.649-1.965-4.933-4.446-5.893zm-92.846 168.252c-53.184 30.792-119.223 29.89-171.394-1.54 20.839-9.627 34.914-8.021 47.535-6.58 10.169 1.161 19.775 2.258 29.654-3.485 10.58-6.151 14.59-16.27 18.129-25.198 5.133-12.952 8.852-22.339 30.01-22.339.196 0 .402 0 .593.002 2.001 0 3.908-.857 5.237-2.355 1.34-1.511 1.962-3.528 1.707-5.532-3.412-26.722 2.958-46.09 19.465-59.108 52.25 5.022 85.938-10.455 103.094-21.896.771 60.386-31.245 117.472-84.029 148.031zm-62.334-.002c0 5.599-4.539 10.137-10.137 10.137s-10.138-4.539-10.138-10.137 4.539-10.138 10.138-10.138 10.137 4.539 10.137 10.138zm60.449-35.669c0-5.599 4.539-10.138 10.138-10.138s10.138 4.539 10.138 10.138-4.539 10.138-10.138 10.138-10.138-4.539-10.138-10.138zm-.484-34.852c0 4.227-3.426 7.653-7.653 7.653s-7.653-3.426-7.653-7.653 3.426-7.653 7.653-7.653 7.653 3.426 7.653 7.653zm22.493.077c0-6.508 5.275-11.782 11.782-11.782s11.783 5.275 11.783 11.782-5.275 11.782-11.783 11.782-11.782-5.275-11.782-11.782zm-45.099 41.345c0 8.502-6.892 15.394-15.394 15.394s-15.394-6.892-15.394-15.394 6.892-15.394 15.394-15.394 15.394 6.892 15.394 15.394zm-178.274-178.884h-29.71v-29.71c0-3.866-3.134-7-7-7h-36.035c-3.866 0-7 3.134-7 7v29.71h-29.71c-3.866 0-7 3.134-7 7v36.035c0 3.866 3.134 7 7 7h29.71v29.709c0 3.866 3.134 7 7 7h36.035c3.866 0 7-3.134 7-7v-29.709h29.71c3.866 0 7-3.134 7-7v-36.035c0-3.866-3.134-7-7-7zm-7 36.035h-29.71c-3.866 0-7 3.134-7 7v29.709h-22.035v-29.709c0-3.866-3.134-7-7-7h-29.71v-22.035h29.71c3.866 0 7-3.134 7-7v-29.71h22.035v29.71c0 3.866 3.134 7 7 7h29.71z" fill="url(#linear-gradient)" data-original-color="linear-gradient" stroke="none" stroke-opacity="1"/></g></svg>