<?xml version="1.0" encoding="UTF-8"?>
<svg xmlns="http://www.w3.org/2000/svg" id="Layer_2" data-name="Layer 2" viewBox="0 0 64 64" width="512" height="512"><path d="M59,64H23a5,5,0,0,1,0-10H59a5,5,0,0,1,0,10ZM23,56a3,3,0,0,0,0,6H59a3,3,0,0,0,0-6Z"/><path d="M34,56H28a1,1,0,0,1-1-1V45.8a1,1,0,0,1,1.457-.89A9.851,9.851,0,0,0,33,46h1a1,1,0,0,1,1,1v8A1,1,0,0,1,34,56Zm-5-2h4V48a12.057,12.057,0,0,1-4-.684Z"/><path d="M55,34H43a1,1,0,0,1-1-1V29a1,1,0,0,1,1-1H55a1,1,0,0,1,1,1v4A1,1,0,0,1,55,34ZM44,32H54V30H44Z"/><path d="M40,48H33a11.993,11.993,0,0,1-5.457-1.311.791.791,0,0,1-.071-.041,1.021,1.021,0,0,1-.229-.171,1,1,0,0,1,.707-1.707h.01a1,1,0,0,1,.565.175A9.875,9.875,0,0,0,33,46h6V42H36a8.634,8.634,0,0,1-3.593-.759,1,1,0,0,1,.826-1.822A6.643,6.643,0,0,0,36,40h4a1,1,0,0,1,1,1v6A1,1,0,0,1,40,48Z"/><path d="M31.861,23.16a1,1,0,0,1-.526-1.851A8.878,8.878,0,0,1,36,20h3.338a6.086,6.086,0,0,1,0-4H33a9.777,9.777,0,0,0-5.992,2.014,1,1,0,1,1-1.216-1.588A11.758,11.758,0,0,1,33,14h8a1,1,0,0,1,.8,1.6,4,4,0,0,0,0,4.792A1,1,0,0,1,41,22H36a6.883,6.883,0,0,0-3.615,1.011A1,1,0,0,1,31.861,23.16Z"/><path d="M54,38H44a1,1,0,0,1-1-1V33a1,1,0,0,1,1-1H54a1,1,0,0,1,1,1v4A1,1,0,0,1,54,38Zm-9-2h8V34H45Z"/><path d="M56,47H40a1,1,0,0,1-1-1V42a1,1,0,0,1,1-1H56a3,3,0,0,1,0,6ZM41,45H56a1,1,0,0,0,0-2H41Z"/><path d="M55,6H43a1,1,0,0,1-1-1V1a1,1,0,0,1,1-1H55a1,1,0,0,1,1,1V5A1,1,0,0,1,55,6ZM44,4H54V2H44Z"/><path d="M53,30H45a1,1,0,0,1-1-1V23a1,1,0,0,1,1-1,4,4,0,0,0,0-8,1,1,0,0,1-1-1V5a1,1,0,0,1,1-1h8a1,1,0,0,1,1,1V29A1,1,0,0,1,53,30Zm-7-2h6V6H46v6.083a6,6,0,0,1,0,11.834Z"/><path d="M45,24a6.037,6.037,0,0,1-4.8-2.4,6,6,0,0,1,0-7.2A6,6,0,1,1,45,24Zm0-10a4.029,4.029,0,0,0-3.2,1.6,4,4,0,0,0,0,4.8A4,4,0,1,0,45,14Z"/><path d="M45,21a3,3,0,1,1,3-3A3,3,0,0,1,45,21Zm0-4a1,1,0,1,0,1,1A1,1,0,0,0,45,17Z"/><path d="M24,45a1,1,0,0,1-.735-.322c-.027-.03-2.552-2.771-5.265-6.179-2.713,3.408-5.238,6.149-5.265,6.179a1,1,0,0,1-1.63-.231l-2-4a1,1,0,0,1,.154-1.119c.029-.031,2.859-3.155,5.465-6.466a.976.976,0,0,1,.816-.382,1,1,0,0,1,.792.431c.765,1.1,1.61,2.258,2.446,3.341l.026.033c1.912,2.465,3.84,4.694,4.958,5.955l1.04-2.079c-.92-1.034-3.074-3.491-5.1-6.063a1,1,0,1,1,1.571-1.236c2.606,3.311,5.436,6.435,5.465,6.466a1,1,0,0,1,.154,1.119l-2,4a1,1,0,0,1-.754.543A.965.965,0,0,1,24,45ZM11.2,40.161l1.04,2.079c1.029-1.16,2.741-3.138,4.5-5.366q-.651-.86-1.276-1.729C13.706,37.316,11.992,39.269,11.2,40.161Z"/><path d="M15.511,34.48a1,1,0,0,1-.826-.436C12.205,30.42,11,27.789,11,26a7,7,0,0,1,14,0c0,1.789-1.2,4.42-3.685,8.044a1,1,0,0,1-1.61.055c-1.007-1.278-1.859-2.432-2.533-3.428C15.225,27.816,15,26.638,15,26a3,3,0,0,1,6,0c0,.594-.2,1.656-1.792,4.1.363.517.771,1.074,1.221,1.666C22.531,28.5,23,26.837,23,26a5,5,0,0,0-10,0c0,.93.579,2.885,3.335,6.916a1,1,0,0,1-.824,1.564ZM18,25a1,1,0,0,0-1,1,5.454,5.454,0,0,0,1,2.268A5.454,5.454,0,0,0,19,26,1,1,0,0,0,18,25Z"/><path d="M18,50A18,18,0,1,1,36,32,18.021,18.021,0,0,1,18,50Zm0-34A16,16,0,1,0,34,32,16.019,16.019,0,0,0,18,16Z"/></svg>
