<svg id="Layer_1" enable-background="new 0 0 75 75" viewBox="0 0 75 75" xmlns="http://www.w3.org/2000/svg"><g id="Hepatology"><path d="m33.3161659 45.1962891c-.2841797.3017578-.2695313.7763672.0322266 1.0600586l5.875 5.5258789c.3222656.3085938.4951172.7817383.4677734 1.203125l-.9375 6.0869141c-.1059799 1.6632538 1.2600632 2.9379883 2.7382813 2.9379883 1.4453125 0 2.6523438-1.1333008 2.7392578-2.5014648 0 0 .2880859-1.6611328.6660156-3.5405273.0820313-.40625-.1816406-.8017578-.5878906-.8833008s-.8017578.1816406-.8828125.5874023c-.3818359 1.8999023-.6738281 3.5795898-.6826172 3.6582031-.0439453.6616211-.59375 1.1796875-1.2363281 1.1801758-.1001625-.0072861-.2075844-.0150986-.1074219-.0078125-.6884766-.0629883-1.1933594-.6494141-1.1572266-1.2680664l.9375-6.0825195c.0644531-.9228516-.2792969-1.840332-.9248047-2.4584961l-5.8798828-5.5302734c-.3007812-.2832033-.7763672-.2700197-1.0595703.0327147z"/><path d="m39.5222206 46.090332c.6805305 0 1.0066795-.8388405.5097656-1.2998047l-2.6298828-2.4404297c-.3017578-.28125-.7783203-.2641602-1.0595703.0395508s-.2636719.7783203.0400391 1.0600586l2.6298828 2.4404297c.1435547.1337891.3271484.2001953.5097656.2001953z"/><path d="m67.5358963 19.605957c-3.4326172-3.0097656-11.6318398-5.7109375-21.5214882-4.5302734-1.2099609.1425781-2.2265625 1.0087891-2.5908203 2.2104492-1.2910156 4.3378906-2.6933594 13.0322266-1.6035156 17.9174805.29142 1.1365356 1.7597427.6545372 1.4599609-.3447266-.9794922-4.4291992.2871094-12.7983398 1.5800781-17.1416016.1904297-.6269531.7119141-1.0791016 1.3310547-1.1523438 3.7562866-.4480591 7.2346191-.3156738 10.2716064.1749268-.5298462.8405151-.8220215 1.8101196-.8555908 2.8151245-.4866333.1589966-1.0224609.1324463-1.4804688-.1028442-.3681641-.1914063-.8212891-.0439453-1.0097656.3242188-.1894531.3686523-.0439453.8208008.3242188 1.0097656.4892578.2509766 1.0273438.3769531 1.5664063.3769531.1017456 0 .2016602-.0252075.3030396-.0341797-.3916016 1.0209351-1.171753 1.8710938-2.2122193 2.3203126-.3808594.1640625-.5556641.6054688-.3916016.9858398.1655884.3841629.6109772.5537205.9853516.3911133 1.8988647-.819458 3.1705322-2.6123657 3.3621216-4.6456909.0816383-.5467453-.0833817-1.8188133 1.0477905-3.132019 3.8001709.8205566 6.7605019 2.208252 8.4455605 3.6854248.5673828.4975586 1 1.1191406 1.25 1.793457.3299179.9068069.1619492 1.3411846-1.0048828 1.6923828-3.1250038.9047852-5.7119179 1.9516602-8.1757851 4.1166992-.3115234.2734375-.3417969.7475586-.0683594 1.0585938s.7470703.3408203 1.0585938.0683594c2.2548828-1.9819336 4.6709023-2.9536133 7.6103554-3.8051758 1.9040222-.5726738 2.6555481-1.8199883 1.9873047-3.6484375-.3369141-.9106446-.9140626-1.7421876-1.6689454-2.4038087z"/><path d="m10.71558 52.644043c.7559519 2.9842377 4.2881985 4.2541275 6.7714844 2.4584961l3.1376953-2.2680664 10.5107422-7.871582c1.918396-1.4362183 3.5296021-3.1741333 4.8293457-5.1133423 1.2466087.8686867 2.6156883 1.340519 4.1335449 1.2695923.4130859-.0195313.7324219-.3710938.7128906-.784668-.0185547-.4145508-.3662109-.7197266-.7851563-.7133789-1.1207275.055542-2.2336426-.307373-3.2680054-1.0427246 2.5110283-4.4057198 2.5431786-7.9710922 2.8754272-9.442627.8252563-5.1654663-1.3382568-10.1766357-5.2935181-13.1744995 1.684082-.6841431 5.0015869-1.701355 8.5386353-.942688.4130859.0869141.8037109-.1713867.890625-.5766602.0869141-.4047852-.171875-.8037109-.5761719-.8901367-4.7774048-1.020813-9.076416.8083496-10.3535767 1.432251-2.1217957-1.2091999-3.5851097-1.3965139-4.7128296-1.7613525-12.9914606-3.644311-25.1599842 7.9136123-22.0917962 20.4443359 6.812571 27.8230324 2.439774 9.917736 4.6806636 18.9770508zm-.9561768-31.4545899c1.1791258.5851078 1.567564 1.354538 2.0209961 2.0552979 1.1559315 1.7653656 3.1664228 2.7150002 5.1929932 2.5340576.4121094-.0361328.7177734-.3999023.6816406-.8125s-.4082031-.7207031-.8125-.6816406c-1.1300659.0953979-2.2195435-.2814941-3.0484619-.9936523.588623-.2533569 1.1134033-.6490479 1.4830322-1.1875.234375-.3417969.1474609-.8085938-.1933594-1.0429688-.3427734-.2358398-.8085938-.1479492-1.0429688.1933594-.2924805.4262085-.7506104.7034302-1.2541504.7938232-.5089111-.8731689-1.2324829-1.5897827-2.1047363-2.0787354 4.074646-4.9217529 10.682373-7.0863037 17.0395508-5.302002 1.0990086.3578005 2.6865501.5671921 4.706665 1.8024902 3.1218109 1.9169006 5.1422157 5.0540009 5.7072144 8.5064087-1.824707.1595459-3.5529175.8447266-4.9848022 1.9484253-.1417427-.0234222-2.1071644-.9830856-4.6378174.0355835-.4317627-.4631958-.6702271-1.0835571-.6252441-1.7211304.0292969-.4130859-.28125-.7719727-.6943359-.8012695-.4101563-.03125-.7724609.2807617-.8017578.6948242-.0556641.77948.1558228 1.5411987.5471191 2.2000732-1.3292847.0952148-2.6725464-.3605957-3.6916504-1.3294678-.3007813-.2841797-.7607422-.2583008-1.0449219.0415039-.2851563.300293-.2587891.7880859.0410156 1.0732422 1.8077297 1.7190418 4.4646511 2.2106762 6.7695313 1.2509766.9061279-.3786011 1.8955078-.4505005 2.8449097-.2480469-1.0515709 1.177412-1.2371864 1.9736366-2.8283081 3.090332-1.3721428.962574-2.5901947 1.1687508-2.9794922 1.3076172-.3974609.1162109-.625.5327148-.5087891.9301758.1170731.400795.5354385.6245499.9306641.5092773l.6279297-.1835938c2.1175861-.6172028 3.9520035-1.9325809 5.2128906-3.8154297 1.3568115-2.0090332 3.5751343-3.2915039 5.9806519-3.4941406.0745354 1.8814507-.2572823 2.8999367-.5216675 4.8198242-.7998047 5.0068359-3.4755859 9.4384766-7.5341797 12.4780273l-10.5009766 7.8637695-3.1279297 2.2602539c-1.6357193 1.181694-3.9427633.3451805-4.4394531-1.6118164l-.9326172-3.6723633-1.1005859-4.4951172c.7092285-1.3118896 1.9098511-2.1448364 2.8964844-1.9838867l2.2373047.3671875c2.2167969.3686523 4.7763672-1.1000977 6.3623047-3.6430664.21875-.3515625.1113281-.8144531-.2402344-1.0332031-.3525391-.2211914-.8144531-.1108398-1.0332031.2392578-1.2695313 2.0356445-3.2080078 3.2260742-4.8466797 2.956543-.6352205-.1025963-1.7918463-.2986679-2.2957153-.3704224.3563232-1.1983032 1.2075195-2.2766113 2.1863403-2.7194214.3769531-.1704102.5449219-.6147461.3740234-.9921875-.171875-.378418-.6152344-.5439453-.9931641-.3740234-1.5484619.7003784-2.8119507 2.4169312-3.1539307 4.276062-.7059326.2533569-1.3878784.7116089-1.9650879 1.3512573l-2.1719966-8.8709717c-.9818682-4.007505-.3252472-8.3230072 2.2674556-12.1210934z"/><path d="m50.5700722 12.5883789c-.1220703.3955078.0996094.8154297.4950981.9379883.4004097.1254883.8164253-.0986328.9384956-.4946289.4863625-1.5719976 1.424614-3.0832529-.1142578-4.8417969-.0224609-.0253906-.046875-.0493164-.0722656-.0717773-1.1162109-.9716802-3.0537109-1.5415044-4.1572266-.8437505-.4277344.2705078-1.0820313.9492192-.6669922 2.4316411.2685547 1.1245117.4296875 2.2060547.4785156 3.2148438.0195313.4013672.3505859.7138672.7480469.7138672.430809 0 .7711601-.3594179.75-.7861328-.127449-2.6622829-.85215-4.0886755-.5078125-4.3061523.3798828-.2392578 1.5869141.0517578 2.3330078.6748047.8572846 1.011648.2779122 1.7597512-.2246093 3.3710936z"/><path d="m29.1345253 11.4663086c-.0751953.4072266.1953125.7978516.6025391.8725586.4094009.0740404.7985878-.1966801.8720703-.6030273.1259766-.6860352.3818359-1.4379883.8037109-2.3618164.2529297-.5454102.2529297-1.1967773-.0048828-1.7514653-.5654297-1.1699219-1.5683594-1.8408203-3.0703125-2.0507813-.9277344-.121582-1.8261719.4165039-2.1308594 1.2895508-.4372997 1.2976375-.2365704 2.7271991-.0849609 4.1079106.0439453.4121094.4199219.7109375.8251953.6665039.4121094-.043457.7109375-.4130859.6669922-.824707-.1230373-1.1189747-.3178101-2.48458.0117188-3.4633794.0654297-.1884766.2919922-.3208008.5097656-.2895508.9892578.1381836 1.5820313.5136719 1.9169922 1.2070317.0693359.1489258.0693359.3276367-.0029297.4814453-.4765625 1.0444336-.7675782 1.9086914-.9150391 2.7197266z"/><path d="m67.9899979 38.574707c-1.59375-3.3232422-4.385746-5.8261719-7.8632851-7.0488281-7.1933441-2.5297947-15.0627213 1.2458572-17.5927734 8.4399414-3.1667404 9.0057297 3.5493546 18.3730469 13.0380859 18.3730469 10.1589546 0 16.7953682-10.6434708 12.4179726-19.7641602zm-7.120121 17.0551758c-6.1152344 2.934082-13.4726563.3452148-16.4072266-5.7680664-1.4208984-2.9619141-1.6035156-6.2993164-.5136719-9.3984375 2.2596321-6.4245605 9.2816772-9.7717037 15.6806641-7.5224609 3.0986328 1.0898438 5.5878944 3.3208008 7.0087929 6.2822266 2.9395294 6.1275634.3607177 13.4663848-5.7685585 16.4067382z"/><path d="m62.0329628 41.6547852h-3.6044922v-3.5849609c0-.4140625-.3359375-.75-.75-.75h-4.2558594c-.4140625 0-.75.3359375-.75.75v3.5849609h-3.6044922c-.4140625 0-.75.3359375-.75.75v4.2553711c0 .4140625.3359375.75.75.75h3.6044922v3.6049805c0 .4140625.3359375.75.75.75h4.2558594c.4140625 0 .75-.3359375.75-.75v-3.6049805h3.6044922c.4140625 0 .75-.3359375.75-.75v-4.2553711c0-.4140625-.3359375-.75-.75-.75zm-.75 4.2553711h-3.6044922c-.4140625 0-.75.3359375-.75.75v3.6049805h-2.7558594v-3.6049805c0-.4140625-.3359375-.75-.75-.75h-3.6044922v-2.7553711h3.6044922c.4140625 0 .75-.3359375.75-.75v-3.5849609h2.7558594v3.5849609c0 .4140625.3359375.75.75.75h3.6044922z"/><path d="m69.0290604 65.0219727-2.0214844-4.2133789c-.1777344-.3730469-.6240234-.53125-1-.3520508l-1.468689.7045898-.8028603-1.6272583 1.5996742-.7672729c.7480469-.3588867 1.1171875-1.2246094.859375-2.0068359l-.25-.7851563c-.1259766-.3945313-.5498047-.6132813-.9423828-.4873047-.3945313.1259766-.6123047.5478516-.4873047.9423828l.2529297.7919922c.0244141.0771484-.0087891.1577148-.0810547.1923828-.1460495.0700073-5.1370239 2.4620132-4.8984413 2.3496094-.0693359.0351563-.1640625.0097656-.2050781-.0527344l-.46875-.7138672c-.2285156-.3457031-.6914063-.4443359-1.0390625-.215332-.3457031.2275391-.4423828.6923828-.2148438 1.0385742l.46875.7133789c.4543991.6936302 1.3609047.9399643 2.1074219.5825195l1.9456787-.9332886.8028564 1.6273193-1.3950195.6692505c-.3742981.1790123-.5316696.6291428-.3515625 1.0004883l2.0214844 4.2138672c.7377129 1.5379105 2.5886116 2.182663 4.120121 1.4482422 1.5351563-.7368164 2.185547-2.5849609 1.4482423-4.1201171zm-2.0966797 2.7675781c-.7900391.3793945-1.7412109.0439453-2.1201172-.7446289l-1.6962929-3.5375977 2.8642616-1.3740234 1.6972656 3.5375977c.3779298.7890624.0439454 1.739746-.7451171 2.1186523z"/></g></svg>