<svg id="&#x421;&#x43B;&#x43E;&#x439;_1" viewBox="0 0 2023.32 1889.08" xmlns="http://www.w3.org/2000/svg"><g fill="none" stroke="#000" stroke-linecap="round" stroke-linejoin="round" stroke-width="31.32"><path d="m2746 2678.88v-733.75c0-141.51-77.82-271.92-202.6-335.65-60.16-30.73-138.11-56.42-239.07-70.79 0 .89-28-67.57-28-67.57 49-44.35 86.79-106.85 114-192.61 14.69-38.48 22.06-126 22.06-126s-.18-6.3-.08-10.49c4-172.34-117.75-318.84-286.48-320.91-168-2.06-294 136.45-294 307.62 0 19.11 7 95 23.29 153.31 27.77 85.17 65.85 147.14 114.94 191 0 0-21.63 69.93-21.83 62.91-82.63 10.27-150 28.06-204.88 50.14" transform="translate(-738.34 -805.46)"/><path d="m1816.05 1472.33v401.09"/><path d="m1997.87 2098.74v-153.61c0-141.51-77.82-271.92-202.6-335.65-60.16-30.73-138.11-56.42-239.07-70.79 0 .89-28-67.57-28-67.57 49-44.35 86.79-106.85 114-192.61 14.69-38.48 22.06-126 22.06-126s-.18-6.3-.08-10.49c4-172.34-117.75-318.84-286.48-320.91-168-2.06-294 136.45-294 307.62 0 19.11 7 95 23.29 153.31 27.77 85.17 65.85 147.14 114.94 191 0 0-21.63 69.93-21.83 62.91-95.38 11.86-170.41 33.73-229.42 60.67-133.42 60.88-217.68 196.99-216.68 345.13l3.45 737.13" transform="translate(-738.34 -805.46)"/><path d="m1259.53 1873.42v-481.6"/><g transform="translate(-738.34 -805.46)"><path d="m920.55 2177.33s61.64-126.7 177.8-153.27"/><path d="m1003.57 2413.85s70.56 76.6 163.11 50.6"/><path d="m2507.82 2146.92c.39 18.48-9.07 24-24.71 33.45l-184.14 112c-8.21 5-48.87 23.52-69.84-5.83-16.46-23-6.65-56.06 17.43-70.72l30.46-18.52h-605.84c27.47-26.47 53.18-58.07 77.54-95.42l2-3.11h510.14l-12.41-6.82a51.84 51.84 0 0 1 -20.39-69.89c13.42-25 44.31-26.4 69-12.8l184.18 101.41c16.03 8.79 26.15 17.77 26.58 36.25z"/><path d="m1750.74 2098.74-2 3.11c-24.36 37.35-50.07 68.94-77.54 95.42-61.78 59.61-132.16 93.17-214.22 107.59-7.7 1.34-14.86 2.8-21.55 4.37-15.45-13.91-29.88-30.45-30.39-63.7-1.21-81.67 28.44-169.92 70-233.27s-8-96.44 52.76-133.4c41.32-11.62 90.85-24.9 171.62-25.45 185.97-1.22 129.4 124.89 51.32 245.33z"/><path d="m1527.77 1878.87c-60.73 37-11.17 70-52.76 133.4s-71.2 151.6-70 233.27c.51 33.25 14.94 49.8 30.39 63.7-78.94 18.28-91.35 50-151.07 89.71a442.15 442.15 0 0 1 -46.73 26.95c-111.47 55.94-199.43 128-286 120.4s-57.23-178-50.42-238.66c11.94-106.45 38-289.09 123-365.52s191.19-100.38 329.73-58.94c2.41.71 4.82 1.42 7.16 2 74.3 20.82 113.71 8.62 166.7-6.31z"/></g><path d=""/><path d="m1527.77 1878.87c-60.73 37-11.17 70-52.76 133.4s-71.2 151.6-70 233.27c.51 33.25 14.94 49.8 30.39 63.7-56.41 15.4-117.11 65-154 93.88 1-1.42 2-2.8 3-4.18 62.17-89.59 11-108 42.91-221.33 32.41-115.08 76.33-172.24 88.47-224.4 7.94-34.2-30.66-58.35-54.59-68a77 77 0 0 0 -13.81-4.37c25.29 3.39 61.47 5.91 96.29 5.91 32.47 0 63.83-2.21 84.1-7.88z" transform="translate(-738.34 -805.46)"/></g></svg>