<svg id="Capa_1" enable-background="new 0 0 512.057 512.057" height="512" viewBox="0 0 512.057 512.057" width="512" xmlns="http://www.w3.org/2000/svg"><g><path d="m476.154 232.043-116.295 42.975c-1.931.714-3.953 1.075-6.011 1.075h-327.233c-14.676 0-26.615 11.939-26.615 26.614 0 14.676 11.939 26.615 26.615 26.615h173.392v135.057h-23.563c-8.547 0-15.5 6.953-15.5 15.5v16.649c0 8.547 6.953 15.5 15.5 15.5h159.106c8.547 0 15.5-6.953 15.5-15.5v-16.649c0-8.547-6.953-15.5-15.5-15.5h-23.563v-62.851c0-4.143-3.358-7.5-7.5-7.5s-7.5 3.357-7.5 7.5v62.851h-81.98v-135.056h81.98v37.206c0 4.143 3.358 7.5 7.5 7.5s7.5-3.357 7.5-7.5v-37.206h41.861c8.378 0 16.608-1.472 24.462-4.375l116.294-42.974c13.766-5.087 20.826-20.425 15.739-34.192-5.085-13.763-20.422-20.822-34.189-15.739zm-140.104 247.836v16.649c0 .275-.224.5-.5.5h-159.106c-.276 0-.5-.225-.5-.5v-16.649c0-.275.224-.5.5-.5h159.106c.276 0 .5.225.5.5zm153.356-211.975-116.295 42.974c-6.185 2.286-12.666 3.445-19.263 3.445h-327.233c-6.405 0-11.615-5.211-11.615-11.615s5.21-11.614 11.615-11.614h327.233c3.838 0 7.609-.675 11.21-2.005l116.294-42.975c6.009-2.217 12.703.863 14.922 6.868 2.221 6.008-.861 12.702-6.868 14.922z"/><path d="m496.557 38.759h-194.76v-23.23c0-8.547-6.953-15.5-15.5-15.5h-60.6c-8.547 0-15.5 6.953-15.5 15.5v23.23h-111.59c-4.142 0-7.5 3.357-7.5 7.5s3.358 7.5 7.5 7.5h397.95c.271 0 .5.229.5.5v20.92c0 .275-.224.5-.5.5h-481c-.271 0-.5-.229-.5-.5v-20.92c0-.267.234-.5.5-.5h48.05c4.142 0 7.5-3.357 7.5-7.5s-3.358-7.5-7.5-7.5h-48.05c-8.547 0-15.5 6.953-15.5 15.5v20.92c0 8.547 6.953 15.5 15.5 15.5h112.64v37.689c0 9.326 3.836 18.402 10.524 24.9l25.775 25.038v28.712c0 7.444 6.056 13.5 13.5 13.5h4.5v16.978c0 4.143 3.358 7.5 7.5 7.5s7.5-3.357 7.5-7.5v-16.978h4.5c7.444 0 13.5-6.056 13.5-13.5v-35.59c0-9.326-3.836-18.402-10.524-24.9l-25.775-25.038v-30.811h51.3v116.34c0 7.444 6.056 13.5 13.5 13.5h4.5v16.978c0 4.143 3.358 7.5 7.5 7.5s7.5-3.357 7.5-7.5v-16.978h4.5c7.444 0 13.5-6.056 13.5-13.5v-116.34h51.3v30.812l-25.776 25.039c-6.688 6.497-10.524 15.573-10.524 24.899v35.59c0 7.444 6.056 13.5 13.5 13.5h4.5v16.978c0 4.143 3.358 7.5 7.5 7.5s7.5-3.357 7.5-7.5v-16.978h4.5c7.444 0 13.5-6.056 13.5-13.5v-28.712l25.776-25.039c6.688-6.497 10.524-15.573 10.524-24.899v-37.69h112.76c8.547 0 15.5-6.953 15.5-15.5v-20.92c0-8.547-6.953-15.5-15.5-15.5zm-271.36-23.23c0-.275.224-.5.5-.5h60.6c.276 0 .5.225.5.5v23.23h-61.6zm-45.7 189.99v-10.626h21v10.626zm-11.205-73.71 26.229 25.479c3.798 3.69 5.976 8.845 5.976 14.142v8.464h-21v-2.214c0-3.623-1.489-7.152-4.094-9.69l-26.229-25.479c-3.798-3.69-5.976-8.845-5.976-14.142v-37.69h21v31.439c-.001 3.622 1.488 7.151 4.094 9.691zm77.205 73.71v-10.626h21v10.626zm21-25.626h-21v-89.214h21zm45 25.626v-11.084h21v11.084zm57.3-77.151c0 5.297-2.178 10.451-5.976 14.141l-26.238 25.487c-2.597 2.53-4.086 6.06-4.086 9.683v1.756h-21v-8.006c0-5.297 2.178-10.451 5.976-14.141l26.239-25.488c2.596-2.531 4.085-6.06 4.085-9.682v-31.439h21z"/></g></svg>