<?xml version="1.0" encoding="UTF-8"?>
<svg xmlns="http://www.w3.org/2000/svg" xmlns:xlink="http://www.w3.org/1999/xlink" version="1.1" id="Capa_1" x="0px" y="0px" viewBox="0 0 512 512" style="enable-background:new 0 0 512 512;" xml:space="preserve" width="512" height="512">
<g>
	<path style="fill:none;stroke:#000000;stroke-width:15;stroke-linecap:round;stroke-linejoin:round;stroke-miterlimit:10;" d="&#10;&#9;&#9;M35.585,339.039c-16.539-20.798-27.904-51.177-27.904-91.983c0-137.381,54.842-179.201,91.872-189.11&#10;&#9;&#9;c39.981-10.699,73.206,10.136,87.398,37.166c24.359,46.392,8.332,140.217-37.157,163.066v30c0,0,19.586,30.492,3.818,58.648&#10;&#9;&#9;c-16.185,28.902-56.326,35.651-90.42,16.153"/>
	<path style="fill:none;stroke:#000000;stroke-width:15;stroke-linecap:round;stroke-linejoin:round;stroke-miterlimit:10;" d="&#10;&#9;&#9;M183.614,266.302c-10.144-5.194-21.64-8.124-33.819-8.124h0v30h0c24.474,0,44.314,19.84,44.314,44.314v162.174&#10;&#9;&#9;c0,5.431,4.403,9.833,9.833,9.833h10.333c5.431,0,9.833-4.403,9.833-9.833V332.492c0-15.154-4.536-29.249-12.325-41.001"/>
	<path style="fill:none;stroke:#000000;stroke-width:15;stroke-linecap:round;stroke-linejoin:round;stroke-miterlimit:10;" d="&#10;&#9;&#9;M326.436,214.872c8.226,19.542,20.292,35.532,35.769,43.307v30c0,0-19.586,30.492-3.818,58.648&#10;&#9;&#9;c30.482,54.432,145.932,30.288,145.932-99.77c0-63.367-11.668-106.403-27.874-135.355"/>
	<path style="fill:none;stroke:#000000;stroke-width:15;stroke-linecap:round;stroke-linejoin:round;stroke-miterlimit:10;" d="&#10;&#9;&#9;M424.082,61.968c-4.009-1.706-7.912-3.025-11.636-4.021c-39.981-10.699-73.206,10.136-87.398,37.166&#10;&#9;&#9;c-10.357,19.725-13.413,48.024-10.008,75.797"/>
	<path style="fill:none;stroke:#000000;stroke-width:15;stroke-linecap:round;stroke-linejoin:round;stroke-miterlimit:10;" d="&#10;&#9;&#9;M362.205,258.178v30h0c-24.474,0-44.314,19.84-44.314,44.314v162.174c0,5.431-4.403,9.833-9.833,9.833h-10.333&#10;&#9;&#9;c-5.431,0-9.833-4.403-9.833-9.833V332.492C287.891,291.45,321.163,258.178,362.205,258.178L362.205,258.178z"/>
	<g>
		<path style="fill:none;stroke:#000000;stroke-width:15;stroke-linecap:round;stroke-linejoin:round;stroke-miterlimit:10;" d="&#10;&#9;&#9;&#9;M352.056,173.125L332.49,153.56L473.213,12.837c7.116-7.116,18.653-7.116,25.769,0l0,0c7.116,7.116,7.116,18.653,0,25.769&#10;&#9;&#9;&#9;L364.462,173.125C361.036,176.551,355.482,176.551,352.056,173.125z"/>
		<path style="fill:none;stroke:#000000;stroke-width:15;stroke-linecap:round;stroke-linejoin:round;stroke-miterlimit:10;" d="&#10;&#9;&#9;&#9;M351.746,172.816L332.49,153.56l-74.495,74.495c-4.545,4.545-1.521,12.325,4.901,12.607l24.684,1.084&#10;&#9;&#9;&#9;c11.039,0.485,21.676-3.614,29.387-11.326l0,0c6.601-6.601,10.499-15.285,11.232-24.451c0.552-6.91,3.739-13.345,8.64-18.247&#10;&#9;&#9;&#9;L351.746,172.816z"/>
	</g>
	
		<line style="fill:none;stroke:#000000;stroke-width:15;stroke-linecap:round;stroke-linejoin:round;stroke-miterlimit:10;stroke-dasharray:33;" x1="255.819" y1="7.5" x2="255.819" y2="504.5"/>
	<path style="fill:none;stroke:#000000;stroke-width:15;stroke-linecap:round;stroke-linejoin:round;stroke-miterlimit:10;" d="&#10;&#9;&#9;M149.795,258.178c0,0-34.436,17.19-61.766-5.335"/>
	<path style="fill:none;stroke:#000000;stroke-width:15;stroke-linecap:round;stroke-linejoin:round;stroke-miterlimit:10;" d="&#10;&#9;&#9;M149.795,288.178c0,14.462-11.949,32.803-38.416,28.298"/>
	<path style="fill:none;stroke:#000000;stroke-width:15;stroke-linecap:round;stroke-linejoin:round;stroke-miterlimit:10;" d="&#10;&#9;&#9;M362.205,258.178c0,0,34.436,17.19,61.766-5.335"/>
	<path style="fill:none;stroke:#000000;stroke-width:15;stroke-linecap:round;stroke-linejoin:round;stroke-miterlimit:10;" d="&#10;&#9;&#9;M362.205,288.178c0,14.462,11.949,32.803,38.416,28.298"/>
</g>















</svg>
